:SAMPLES-PER-SECOND 30
:FULLY-SPECIFIED
:DEGREES
109
root  15.0186 37.7005 1.7089 -138.398 78.7585 -135.595
RightUpLeg  -19.6153 -0.204673 11.9617
RightLeg  26.5327 3.00585 -3.5758
RightFoot  -6.17739 0.181371 -2.9812
RightToes  -4.65663e-010 -1.59028e-015 9.93923e-017
Spine  14.2608 -4.48991 5.09213
Spine1  6.00296 -5.18714 8.77403
HEad  -25.8342 0.144942 2.59741
LeftShoulder1  9.93923e-017 0 1.22299e-017
LeftArm  16.6754 12.5177 -86.3272
LeftForeArm  -26.9556 -19.5365 3.04094
LeftHand  0.730293 5.10985 -0.74853
RightShoulder  1.98785e-016 -4.96962e-017 1.55301e-017
RightArm  2.18344 -36.2741 83.5194
RightForeArm  -20.7735 14.4882 -0.116603
RightHand  1.61985 -12.3548 -8.94909
LeftUpLeg  -0.292078 -9.90044 10.7025
LeftLeg  53.6096 -6.86441 7.1997
LeftFoot  20.877 1.3448 -4.13443
LeftToes  3.34876e-009 -9.68256e-011 -6.12847e-011
110
root  16.6891 38.0695 1.8265 -141.188 79.3553 -138.072
RightUpLeg  -15.5467 -0.179712 11.63
RightLeg  24.8856 2.70631 -3.45194
RightFoot  -7.68655 0.144988 -3.05987
RightToes  -4.65663e-010 -1.59028e-015 9.93923e-017
Spine  12.9012 -3.63954 5.486
Spine1  6.34882 -4.01292 7.44528
HEad  -24.8491 -1.44713 3.06201
LeftShoulder1  9.93923e-017 0 1.22299e-017
LeftArm  9.64531 17.3247 -86.1603
LeftForeArm  -17.9128 -13.2641 -4.25112
LeftHand  0.855159 5.8373 -3.09399
RightShoulder  1.98785e-016 -4.96962e-017 1.55301e-017
RightArm  15.5587 -31.2313 85.0806
RightForeArm  -39.0431 18.6888 -10.8155
RightHand  1.7526 -12.6258 -10.4539
LeftUpLeg  -6.02505 -10.0234 9.27886
LeftLeg  57.6523 -8.54867 5.7676
LeftFoot  16.6146 1.11963 -3.99389
LeftToes  3.34876e-009 -9.68256e-011 -6.12847e-011
111
root  18.3425 38.3712 1.91577 -144.372 80.4123 -141.102
RightUpLeg  -11.6535 1.26496 10.9251
RightLeg  23.2984 1.72494 -3.45075
RightFoot  -9.29049 0.116238 -3.51704
RightToes  -4.65663e-010 -1.59028e-015 9.93923e-017
Spine  11.726 -2.60317 5.82567
Spine1  6.47338 -2.54089 5.78465
HEad  -24.2412 -3.10357 3.89569
LeftShoulder1  9.93923e-017 0 1.22299e-017
LeftArm  8.61067 22.2357 -85.2925
LeftForeArm  -13.4799 -10.2754 -6.5115
LeftHand  0.966801 6.76273 -5.23509
RightShoulder  1.98785e-016 -4.96962e-017 1.55301e-017
RightArm  21.1494 -26.7792 85.283
RightForeArm  -47.1605 21.303 -19.798
RightHand  1.77142 -12.6412 -10.7341
LeftUpLeg  -11.3394 -9.66433 7.5303
LeftLeg  58.731 -9.56458 4.22765
LeftFoot  14.0376 1.09883 -4.32893
LeftToes  3.34876e-009 -9.68256e-011 -6.12847e-011
112
root  20.0202 38.6473 1.96934 -147.929 81.6503 -144.712
RightUpLeg  -7.74325 2.45687 10.1725
RightLeg  21.2426 1.24033 -3.219
RightFoot  -10.3629 0.0922127 -3.87188
RightToes  -4.65663e-010 -1.59028e-015 9.93923e-017
Spine  10.544 -1.56461 6.27104
Spine1  6.34221 -1.04208 3.61078
HEad  -23.8667 -4.50181 4.70703
LeftShoulder1  9.93923e-017 0 1.22299e-017
LeftArm  5.28867 27.6326 -83.114
LeftForeArm  -5.60139 -8.73321 -6.67232
LeftHand  1.03865 7.60637 -7.12809
RightShoulder  1.98785e-016 -4.96962e-017 1.55301e-017
RightArm  17.2161 -22.3891 84.3414
RightForeArm  -43.2599 25.3039 -23.7617
RightHand  1.72606 -12.4269 -10.6532
LeftUpLeg  -16.1106 -8.86775 5.7949
LeftLeg  56.7942 -9.68038 3.55599
LeftFoot  11.6224 1.03215 -4.48957
LeftToes  3.34876e-009 -9.68256e-011 -6.12847e-011
113
root  21.709 38.8867 1.98331 -150.163 82.7963 -146.943
RightUpLeg  -3.63918 2.37149 9.55237
RightLeg  18.688 1.85622 -2.62133
RightFoot  -10.7677 0.0779859 -3.83954
RightToes  -4.65663e-010 -1.59028e-015 9.93923e-017
Spine  9.49754 -0.66693 7.05194
Spine1  6.19194 0.274833 1.20644
HEad  -23.6836 -5.44278 5.17766
LeftShoulder1  9.93923e-017 0 1.22299e-017
LeftArm  5.47849 33.6863 -79.9699
LeftForeArm  -2.1133 -8.19818 -6.62251
LeftHand  1.06837 8.1092 -8.31732
RightShoulder  1.98785e-016 -4.96962e-017 1.55301e-017
RightArm  14.362 -17.9022 83.08
RightForeArm  -39.7232 29.3161 -26.5765
RightHand  1.72927 -12.3401 -11.0197
LeftUpLeg  -19.9016 -7.80928 4.4602
LeftLeg  51.9774 -9.07285 3.48467
LeftFoot  8.70581 0.957633 -4.76918
LeftToes  3.34876e-009 -9.68256e-011 -6.12847e-011
114
root  23.3805 39.001 1.96039 -147.786 83.7647 -144.432
RightUpLeg  0.309283 1.68895 9.19849
RightLeg  16.5774 3.37334 -1.77537
RightFoot  -11.1333 0.0655529 -3.83317
RightToes  -4.65663e-010 -1.59028e-015 9.93923e-017
Spine  8.70152 0.0867438 8.19458
Spine1  6.2006 1.3417 -0.748066
HEad  -23.8707 -5.87373 5.37027
LeftShoulder1  9.93923e-017 0 1.22299e-017
LeftArm  11.2055 39.9798 -76.2586
LeftForeArm  -5.67156 -8.95752 -6.5998
LeftHand  1.07461 8.23161 -8.54773
RightShoulder  1.98785e-016 -4.96962e-017 1.55301e-017
RightArm  13.7147 -13.1588 81.7802
RightForeArm  -38.3163 32.3612 -28.9569
RightHand  1.78802 -12.4925 -11.5403
LeftUpLeg  -22.3529 -6.48483 3.75624
LeftLeg  44.3859 -8.17824 3.16724
LeftFoot  6.58957 0.920797 -5.11138
LeftToes  3.34876e-009 -9.68256e-011 -6.12847e-011
115
root  25.0333 39.0092 1.92531 -140.959 84.6896 -137.646
RightUpLeg  3.88407 1.09533 8.87201
RightLeg  14.8759 5.46144 -0.84515
RightFoot  -11.5527 0.0557037 -4.16529
RightToes  -4.65663e-010 -1.59028e-015 9.93923e-017
Spine  7.96206 0.831893 9.00815
Spine1  6.28056 2.19189 -2.03462
HEad  -24.3624 -5.97172 5.53587
LeftShoulder1  9.93923e-017 0 1.22299e-017
LeftArm  16.9362 45.936 -72.0542
LeftForeArm  -9.88025 -9.46525 -6.6807
LeftHand  1.07079 8.12811 -8.18317
RightShoulder  1.98785e-016 -4.96962e-017 1.55301e-017
RightArm  13.8036 -8.44917 80.63
RightForeArm  -37.5725 34.3422 -30.6085
RightHand  1.81121 -12.5672 -11.6895
LeftUpLeg  -23.5032 -5.03266 3.30916
LeftLeg  33.878 -7.31553 2.25693
LeftFoot  6.22536 0.92582 -5.24095
LeftToes  3.34876e-009 -9.68256e-011 -6.12847e-011
116
root  26.6523 39.005 1.89895 -133.076 85.7765 -130.045
RightUpLeg  7.31427 0.665569 8.13882
RightLeg  12.7779 7.40941 -0.0740599
RightFoot  -11.6368 0.0537138 -4.23378
RightToes  -4.65663e-010 -1.59028e-015 9.93923e-017
Spine  7.35728 1.58469 8.87212
Spine1  6.24816 2.91729 -3.01065
HEad  -24.7422 -6.08716 5.80448
LeftShoulder1  9.93923e-017 0 1.22299e-017
LeftArm  18.0142 51.153 -67.3074
LeftForeArm  -8.77522 -9.12467 -6.54071
LeftHand  1.05858 7.92107 -7.8928
RightShoulder  1.98785e-016 -4.96962e-017 1.55301e-017
RightArm  14.0752 -4.46115 79.8098
RightForeArm  -36.8996 35.3706 -31.5274
RightHand  1.79471 -12.4785 -11.7117
LeftUpLeg  -23.4728 -4.38976 2.79927
LeftLeg  20.742 -6.11909 0.949996
LeftFoot  6.87933 0.987341 -5.39972
LeftToes  3.34876e-009 -9.68256e-011 -6.12847e-011
117
root  28.2623 38.9546 1.85707 -123.185 86.8905 -120.275
RightUpLeg  10.6655 0.189717 7.12489
RightLeg  10.9329 8.78583 0.283286
RightFoot  -11.6088 0.0454398 -3.52673
RightToes  -4.65663e-010 -1.59028e-015 9.93923e-017
Spine  7.1912 2.17375 8.32343
Spine1  6.09151 3.55713 -3.93331
HEad  -24.8804 -6.38164 6.11359
LeftShoulder1  9.93923e-017 0 1.22299e-017
LeftArm  16.6384 55.2732 -62.3753
LeftForeArm  -4.91851 -8.1463 -6.37039
LeftHand  1.04094 7.67846 -7.9839
RightShoulder  1.98785e-016 -4.96962e-017 1.55301e-017
RightArm  14.3678 -1.64748 79.4531
RightForeArm  -36.1529 35.6068 -31.7851
RightHand  1.81423 -12.4821 -12.0491
LeftUpLeg  -22.3762 -3.48144 1.64219
LeftLeg  7.01639 -6.15193 0.147536
LeftFoot  6.61648 1.02134 -5.67381
LeftToes  3.34876e-009 -9.68256e-011 -6.12847e-011
118
root  29.9399 38.7896 1.76855 -108.236 87.7318 -105.132
RightUpLeg  13.7125 -0.256536 6.16742
RightLeg  10.5026 9.81819 0.17059
RightFoot  -11.7238 0.0305931 -2.53337
RightToes  -4.65663e-010 -1.59028e-015 9.93923e-017
Spine  7.23532 2.47556 7.92586
Spine1  6.21102 4.04489 -4.79512
HEad  -25.2244 -6.61818 6.40673
LeftShoulder1  9.93923e-017 0 1.22299e-017
LeftArm  14.6405 57.7756 -58.2111
LeftForeArm  -1.65741 -5.96362 -6.73679
LeftHand  1.03479 7.60746 -8.22886
RightShoulder  1.98785e-016 -4.96962e-017 1.55301e-017
RightArm  14.3972 -0.0929144 79.6286
RightForeArm  -35.3786 35.3487 -31.6164
RightHand  1.8616 -12.5989 -12.4627
LeftUpLeg  -21.6916 -3.15142 0.592742
LeftLeg  -1.55548 -6.11259 0.0641868
LeftFoot  4.02966 0.873403 -5.61655
LeftToes  3.34876e-009 -9.68256e-011 -6.12847e-011
119
root  31.6921 38.5809 1.6388 -89.5638 88.4633 -86.5444
RightUpLeg  16.0837 -0.331214 5.13748
RightLeg  11.0837 10.6228 -0.158048
RightFoot  -11.4821 0.0194311 -1.33014
RightToes  -4.65663e-010 -1.59028e-015 9.93923e-017
Spine  6.69263 2.55042 7.2177
Spine1  7.19855 4.3661 -5.51041
HEad  -26.0757 -6.53755 6.84331
LeftShoulder1  9.93923e-017 0 1.22299e-017
LeftArm  10.2347 58.5218 -55.8397
LeftForeArm  2.69755 -4.30556 -6.5387
LeftHand  1.05717 7.94099 -8.28365
RightShoulder  1.98785e-016 -4.96962e-017 1.55301e-017
RightArm  13.8923 -0.0506497 80.2674
RightForeArm  -34.94 35.1193 -31.4506
RightHand  1.87332 -12.6305 -12.5535
LeftUpLeg  -22.3684 -3.89538 -0.294046
LeftLeg  -2.2855 -4.84361 0.571485
LeftFoot  1.61909 0.650221 -4.86784
LeftToes  3.34876e-009 -9.68256e-011 -6.12847e-011
120
root  33.5855 38.3001 1.46994 -41.7308 88.9075 -39.1359
RightUpLeg  17.5821 0.134228 3.68901
RightLeg  13.1047 11.0747 -0.0851702
RightFoot  -10.9876 -0.0156328 1.18483
RightToes  -4.65663e-010 -1.59028e-015 9.93923e-017
Spine  5.21975 2.70518 6.0309
Spine1  8.65811 4.60476 -5.93868
HEad  -26.9366 -6.28415 7.62966
LeftShoulder1  9.93923e-017 0 1.22299e-017
LeftArm  4.19174 58.1474 -55.545
LeftForeArm  7.29784 -3.02087 -5.90132
LeftHand  1.1037 8.58805 -8.1092
RightShoulder  1.98785e-016 -4.96962e-017 1.55301e-017
RightArm  13.1919 -2.05245 81.2523
RightForeArm  -35.1413 35.0937 -31.4151
RightHand  1.86845 -12.5977 -12.5878
LeftUpLeg  -23.7307 -5.52993 -1.03097
LeftLeg  2.60491 -2.43623 1.80165
LeftFoot  2.60768 0.543957 -3.81266
LeftToes  3.34876e-009 -9.68256e-011 -6.12847e-011
121
root  35.5902 38.005 1.27798 10.9736 88.2881 13.2808
RightUpLeg  18.078 0.737997 1.37203
RightLeg  17.2356 11.1283 0.658694
RightFoot  -8.76235 -0.185058 4.86993
RightToes  -4.65663e-010 -1.59028e-015 9.93923e-017
Spine  3.76191 2.95616 4.29611
Spine1  9.64604 4.77833 -6.13923
HEad  -27.0256 -6.15905 8.57341
LeftShoulder1  9.93923e-017 0 1.22299e-017
LeftArm  -0.866657 57.2951 -56.9001
LeftForeArm  9.55706 -2.25566 -5.33033
LeftHand  1.14713 9.18798 -8.01582
RightShoulder  1.98785e-016 -4.96962e-017 1.55301e-017
RightArm  13.1172 -6.18648 82.6555
RightForeArm  -35.5415 34.4728 -30.8661
RightHand  1.89407 -12.6323 -12.9089
LeftUpLeg  -24.6083 -9.51805 -0.831906
LeftLeg  8.99021 2.11262 2.95005
LeftFoot  6.18426 0.498453 -2.79894
LeftToes  3.34876e-009 -9.68256e-011 -6.12847e-011
122
root  37.558 37.8146 1.0927 40.054 86.9031 42.5266
RightUpLeg  16.8972 0.0250118 -1.95307
RightLeg  24.2444 11.6984 1.23323
RightFoot  -1.71893 -0.711897 7.01173
RightToes  -4.65663e-010 -1.59028e-015 9.93923e-017
Spine  3.47079 2.96534 1.90233
Spine1  9.6864 4.68976 -6.34123
HEad  -26.2354 -6.03788 9.04964
LeftShoulder1  9.93923e-017 0 1.22299e-017
LeftArm  -4.09701 55.7206 -59.598
LeftForeArm  8.89934 -2.10719 -5.24747
LeftHand  1.16072 9.49446 -8.3886
RightShoulder  1.98785e-016 -4.96962e-017 1.55301e-017
RightArm  14.2745 -11.5973 84.6697
RightForeArm  -35.8173 32.1225 -28.9437
RightHand  1.90851 -12.6848 -12.9657
LeftUpLeg  -24.4886 -12.1454 -1.70216
LeftLeg  14.7401 4.57935 3.84766
LeftFoot  7.61298 0.339515 -1.72133
LeftToes  3.34876e-009 -9.68256e-011 -6.12847e-011
